# xmcd
#
# Track frame offsets:
#	150
#	9440
#	22760
#	33182
#	49990
#	62305
#	72270
#	83982
#	93520
#	103665
#	117325
#	128442
#	137010
#	149872
#	160737
#	172220
#	181242
#	191877
#	204180
#	217410
#	231152
#	242977
#	254610
#	268257
#	281155
#
# Disc length: 3901 seconds
#
# Revision: 0
# Processed by: cddbd v1.5.2PL0 Copyright (c) Steve Scherf et al.
# Submitted via: audiograbber 1.81.02
#
DISCID=7a0f3b19
DTITLE=Various Artist - My Rifle, My Pony and Me
DYEAR=1900
DGENRE=Soundtrack
TTITLE0=Dean Martin and Ricky Nelson - My Rifle My Pony and Me
TTITLE1=James Stewart - The Legend of Shenandoah
TTITLE2=Sons of the Pioneers - Montana
TTITLE3=Marty Robbins - Ballad of the Alamo
TTITLE4=Marty Robbins - The Searchers
TTITLE5=Johnny Western - Ballad of Paladin
TTITLE6=Johnny Cash - The Sons of Katie Elder
TTITLE7=Frankie Laine - Rawhide
TTITLE8=Fess Parker - Ballad of Davy Crockett
TTITLE9=Dean Martin - Rio Bravo
TTITLE10=Tab Hunter - I'm a Runaway
TTITLE11=Lorne Greene - Bonanza
TTITLE12=Johnny Horton - North to Alaska 
TTITLE13=Sons of the Pioneers - Wagons West
TTITLE14=Tex Ritter - High Noon
TTITLE15=Johnny Horton - The Rebel Johnny Yuma
TTITLE16=Frankie Laine - Gunfight at O.K. Corral
TTITLE17=Kirk Douglas - And the Moon Grew Brighter
TTITLE18=Marty Robbins - The Hanging Tree
TTITLE19=Roy Rogers and Sons of the Pioneers - Pecos Bill
TTITLE20=Roy Rogers - The Yellow Rose of Texas
TTITLE21=Roy Rogers - Roll on Texas Moon
TTITLE22=Sons of the Pioneers - Song of the Wagon Master
TTITLE23=Roy Rogers - Don't Fence Me In
TTITLE24=Dickson Hall - Cowboy
EXTD=
EXTT0=
EXTT1=
EXTT2=
EXTT3=
EXTT4=
EXTT5=
EXTT6=
EXTT7=
EXTT8=
EXTT9=
EXTT10=
EXTT11=
EXTT12=
EXTT13=
EXTT14=
EXTT15=
EXTT16=
EXTT17=
EXTT18=
EXTT19=
EXTT20=
EXTT21=
EXTT22=
EXTT23=
EXTT24=
PLAYORDER=
